<svg xmlns="http://www.w3.org/2000/svg" width="295.094" height="60.557" viewBox="0 0 78.077 16.022"><defs><path id="b" d="M26.55 29.913h112.764v94.369H26.55z"/><path id="a" d="M33.225 12.198h111.994v60.394H33.225z"/></defs><g aria-label="://url.chk" style="font-stretch:condensed;font-size:19.7556px;line-height:0%;font-family:'Helvetica LT Std';-inkscape-font-specification:'Helvetica LT Std Condensed';letter-spacing:0;word-spacing:0;white-space:pre;shape-inside:url(#b);fill:none;stroke:#000;stroke-width:.264583px;stroke-linecap:butt;stroke-linejoin:miter;stroke-opacity:1" transform="translate(-27.757 -20.034)"><path d="M27.757 33.481q0-.665.443-1.08.454-.415 1.129-.415.685 0 1.129.415.453.415.453 1.08 0 .656-.444 1.071-.444.405-1.138.405-.685 0-1.129-.405-.443-.415-.443-1.07zm0-7.9q0-.666.443-1.08.454-.415 1.129-.415.685 0 1.129.415.453.414.453 1.08 0 .656-.444 1.07-.444.406-1.138.406-.685 0-1.129-.405-.443-.415-.443-1.071zM34.075 36.057H32l5.17-15.251h2.074zM39.062 36.057h-2.074l5.17-15.251h2.074zM51.814 33.79q-1.032 1.254-2.855 1.254-1.678 0-2.566-.965-.878-.964-.897-2.826v-6.84h2.788v6.743q0 1.63 1.485 1.63 1.418 0 1.949-.983v-7.39h2.797v10.438h-2.623zM62.483 27.028q-.569-.077-1.003-.077-1.582 0-2.074 1.07v6.83h-2.788V24.414h2.634l.077 1.244q.84-1.437 2.325-1.437.463 0 .868.125zM66.766 34.851H63.97V20.034h2.797zM69.207 33.481q0-.665.443-1.08.454-.415 1.129-.415.685 0 1.129.415.453.415.453 1.08 0 .656-.444 1.071-.443.405-1.138.405-.685 0-1.129-.405-.443-.415-.443-1.07zM79.142 32.796q.772 0 1.254-.424.483-.425.502-1.129h2.614q-.01 1.061-.579 1.949-.569.878-1.562 1.37-.984.482-2.18.482-2.238 0-3.531-1.418-1.293-1.428-1.293-3.936v-.183q0-2.412 1.283-3.849 1.283-1.437 3.521-1.437 1.958 0 3.135 1.119 1.187 1.11 1.206 2.961h-2.614q-.02-.81-.502-1.312-.482-.511-1.273-.511-.974 0-1.476.714-.492.704-.492 2.296v.29q0 1.61.492 2.314t1.495.704zM87.824 25.552q1.11-1.331 2.788-1.331 3.395 0 3.444 3.945v6.685h-2.788v-6.608q0-.897-.386-1.321-.386-.434-1.283-.434-1.225 0-1.775.945v7.418h-2.788V20.034h2.788zM99.95 30.665l-1.004 1.003v3.183h-2.788V20.034h2.788v8.21l.54-.695 2.672-3.135h3.348l-3.772 4.35 4.1 6.087h-3.203z" style="font-style:normal;font-variant:normal;font-weight:700;font-stretch:normal;font-family:Roboto;-inkscape-font-specification:'Roboto Bold';fill:#4d4d4d;fill-opacity:1;stroke:none;stroke-opacity:1"/></g></svg>