<svg xmlns="http://www.w3.org/2000/svg" width="156.203" height="57.729" viewBox="0 0 41.329 15.274"><defs><path id="a" d="M15.695 41.836h179.291v76.048H15.695z"/></defs><g aria-label="wurl" style="font-stretch:condensed;font-size:19.7556px;line-height:0%;font-family:'Helvetica LT Std';-inkscape-font-specification:'Helvetica LT Std Condensed';letter-spacing:0;word-spacing:0;white-space:pre;shape-inside:url(#a);fill:#000;stroke:#000;stroke-width:.264583px;stroke-linecap:butt;stroke-linejoin:miter;stroke-opacity:1" transform="translate(-15.833 -31.826)"><path d="m25.843 42.984 1.37-6.646h2.691l-2.662 10.437h-2.334l-1.978-6.57-1.977 6.57h-2.325l-2.663-10.437h2.692l1.36 6.636 1.91-6.636h2.016zM37.535 45.714q-1.033 1.254-2.856 1.254-1.678 0-2.566-.965-.878-.964-.897-2.826v-6.84h2.788v6.743q0 1.63 1.485 1.63 1.419 0 1.949-.983v-7.39h2.797v10.438h-2.623zM48.203 38.952q-.569-.077-1.003-.077-1.582 0-2.074 1.07v6.83h-2.788V36.338h2.634l.077 1.244q.84-1.437 2.325-1.437.463 0 .868.125zM52.486 46.775H49.69V31.958h2.797z" style="font-style:normal;font-variant:normal;font-weight:700;font-stretch:normal;font-family:Roboto;-inkscape-font-specification:'Roboto Bold';fill:#969696;fill-opacity:1;stroke:none;stroke-opacity:1"/></g></svg>