<?xml version="1.0" encoding="UTF-8" standalone="no"?>
<svg
   xmlns:dc="http://purl.org/dc/elements/1.1/"
   xmlns:cc="http://creativecommons.org/ns#"
   xmlns:rdf="http://www.w3.org/1999/02/22-rdf-syntax-ns#"
   xmlns:svg="http://www.w3.org/2000/svg"
   xmlns="http://www.w3.org/2000/svg"
   xmlns:sodipodi="http://sodipodi.sourceforge.net/DTD/sodipodi-0.dtd"
   xmlns:inkscape="http://www.inkscape.org/namespaces/inkscape"
   xml:space="preserve"
   width="7.2335105in"
   height="3.2616892in"
   version="1.1"
   style="clip-rule:evenodd;fill-rule:evenodd;image-rendering:optimizeQuality;shape-rendering:geometricPrecision;text-rendering:geometricPrecision"
   viewBox="0 0 7233.5105 3261.6892"
   id="svg10"
   sodipodi:docname="hawk.svg"
   inkscape:version="1.0.2 (e86c870879, 2021-01-15)"><metadata
   id="metadata14"><rdf:RDF><cc:Work
       rdf:about=""><dc:format>image/svg+xml</dc:format><dc:type
         rdf:resource="http://purl.org/dc/dcmitype/StillImage" /></cc:Work></rdf:RDF></metadata><sodipodi:namedview
   pagecolor="#ffffff"
   bordercolor="#666666"
   borderopacity="1"
   objecttolerance="10"
   gridtolerance="10"
   guidetolerance="10"
   inkscape:pageopacity="0"
   inkscape:pageshadow="2"
   inkscape:window-width="1920"
   inkscape:window-height="1050"
   id="namedview12"
   showgrid="false"
   inkscape:zoom="0.85588447"
   inkscape:cx="244.7702"
   inkscape:cy="188.241"
   inkscape:window-x="0"
   inkscape:window-y="0"
   inkscape:window-maximized="1"
   inkscape:current-layer="svg10" />
 <defs
   id="defs4"><rect
   x="7642.4888"
   y="1638.3357"
   width="4078.6074"
   height="1898.7181"
   id="rect841" />
  <style
   type="text/css"
   id="style2">
   <![CDATA[
    .fil0 {fill:black}
   ]]>
  </style>
 </defs>
 <g
   id="Layer_x0020_1"
   transform="translate(-3521.948,-1572.3109)">
  <metadata
   id="CorelCorpID_0Corel-Layer" />
  <path
   class="fil0"
   d="m 4690,4761 c 3,-2 -1,-8 10,0 -12,7 -8,1 -10,0 z m -706,-109 c -3,-14 5,-31 11,-44 7,-14 13,-25 18,-43 6,-19 27,-69 38,-80 12,49 -3,107 -35,139 -6,6 -20,24 -31,27 z m 3733,-298 c 61,19 140,248 144,275 -20,-15 -56,-67 -65,-90 -17,-42 -74,-154 -79,-185 z m -30,-119 c 15,6 40,32 59,46 12,10 12,7 16,22 -29,-6 -48,-24 -64,-44 -5,-6 -2,0 -6,-9 0,-1 -5,-16 -6,-16 z m -2642,-68 c 17,29 62,124 30,158 -1,-35 -11,-87 -25,-119 -6,-14 -12,-27 -5,-38 z m 2168,-48 c 32,49 -8,36 55,76 19,12 62,46 62,67 -8,-1 -30,-16 -38,-23 l -34,-11 c -12,-1 -3,5 -3,32 0,20 3,20 7,36 5,22 8,52 9,75 3,65 2,103 -6,165 l -17,-1 c -12,-39 2,-197 -19,-245 -17,4 -33,38 -54,65 -7,-12 3,-43 9,-56 6,-15 15,-42 22,-54 26,-42 -1,-71 1,-111 1,-19 1,-9 6,-15 z m 576,0 c 7,-5 4,-5 21,-5 42,1 62,9 96,31 18,12 24,4 27,27 -51,-9 -77,-16 -122,-35 -29,-12 -18,-3 -22,-19 z m 103,-54 c 0,-2 3,-2 3,1 -1,10 -3,2 -3,-1 z m -2347,286 c -15,-9 -11,-28 -12,-60 -2,-74 8,-136 12,-206 4,-79 -2,-163 10,-242 3,-16 0,-20 15,-21 14,222 -5,281 -13,469 -1,23 3,49 -12,60 z m -295,-302 c 21,1 13,9 47,34 33,25 58,47 94,67 17,10 42,18 54,30 0,36 -2,71 -3,107 -1,25 3,93 -9,106 -15,-17 -74,-160 -112,-216 l -52,-78 c -7,-16 -20,-30 -20,-50 z m 2281,8 c 21,-14 119,50 136,60 -4,15 -12,35 -22,43 -12,-4 -39,-42 -53,-53 -19,-15 -47,-31 -60,-50 z m -463,99 c -3,-35 11,-77 26,-107 7,-15 3,-19 22,-24 8,8 12,19 15,31 l -63,99 z m 836,-88 c 6,-7 1,-5 16,-8 l 99,-14 c 15,-2 18,-14 35,-4 -13,12 -51,31 -67,38 -24,9 -68,4 -83,-11 z m -2226,-34 c 10,7 26,11 37,16 12,6 26,12 37,17 l 63,42 c -30,4 -120,-44 -145,-34 l -11,65 c -22,-30 -18,-178 4,-199 l 6,59 c 27,1 49,-5 78,-1 -7,7 -3,5 -14,9 -6,2 -13,4 -20,7 -15,5 -28,7 -35,19 z m 1621,-135 c 55,-8 209,-19 259,-5 63,18 116,42 160,55 20,6 46,4 55,16 -9,10 -30,21 -44,39 -20,26 -9,36 -35,53 l -190,-86 c -31,-14 -68,-27 -104,-34 -43,-8 -97,-11 -101,-39 z m -1952,21 c 18,19 104,62 121,65 11,-32 -8,-101 8,-136 20,23 3,154 1,180 -55,-40 -11,-11 -71,-42 -14,-7 -63,-36 -73,-35 l 13,68 c -11,-1 -31,-39 -36,-47 -12,-19 -25,-34 -21,-56 -17,-4 -34,-17 -41,-27 16,-8 62,15 66,18 9,-16 51,-35 74,-38 -6,11 -22,23 -39,51 z m 340,-114 c 5,17 19,47 18,65 -18,1 -30,-5 -42,-10 0,-15 1,-20 6,-34 5,-15 4,-17 18,-21 z m -700,42 c 43,8 143,78 150,118 -20,-7 -110,-79 -133,-101 z m 2122,9 c -17,-8 -10,-3 -16,-13 6,-9 5,-9 19,-12 l -4,25 z m 156,-24 c 12,-14 36,-16 58,-23 36,-12 106,-20 142,-8 11,4 22,12 27,14 19,7 15,-2 26,16 -40,6 -91,5 -133,10 -31,4 -103,15 -121,-10 z m -3234,398 c -19,-5 -7,-16 -41,-40 -10,-7 -38,-24 -48,-33 5,-18 98,-153 119,-169 8,-7 14,-13 21,-21 l 87,-77 c 5,-4 5,-5 10,-9 10,-9 4,-3 13,-10 17,-11 26,-25 45,-39 12,-9 11,-16 29,-11 l -4,13 c -16,68 18,26 -41,101 -53,67 -71,84 -120,159 l -45,78 c -11,19 -16,39 -26,58 z m 815,-167 c 0,0 -1,-2 -1,-1 l -13,-66 c -2,-31 -1,-55 3,-84 6,-42 24,-99 46,-126 l 24,1 c 1,2 2,2 2,3 l 11,27 c 3,7 10,20 14,28 7,14 9,16 15,27 l 70,151 c 8,17 17,37 27,58 17,36 4,31 45,43 41,12 84,42 111,62 -32,-3 -71,-33 -108,-24 -3,33 95,114 119,142 l 27,27 c 9,11 17,17 28,25 18,15 20,14 25,32 -53,-9 -101,-59 -135,-90 -32,-29 -63,-67 -80,-111 -7,-17 -14,-24 -23,-38 -10,4 -4,5 -12,6 -1,-10 1,-15 -1,-24 -2,-7 -6,-13 -8,-22 -5,-22 -8,-28 -15,-47 -6,-17 -28,-78 -41,-87 -11,8 -29,57 -32,72 -4,18 -7,22 -9,40 -1,9 -6,37 -8,45 -2,-3 -6,1 -5,-18 l 14,-159 c 9,-62 22,-22 -12,-113 -6,-15 -5,-25 -20,-29 -29,23 -53,130 -53,175 0,19 5,61 -4,75 z m 1701,-269 c 29,6 46,38 49,65 2,18 3,26 -6,35 -1,-1 -2,-3 -2,-2 l -12,-20 c -9,-19 -28,-61 -29,-78 z m 165,22 5,-64 c 3,-18 1,-12 11,-16 6,12 11,30 9,46 -2,18 -8,33 -25,34 z m 91,-35 c 30,-11 100,9 119,23 -27,13 -117,8 -119,-23 z m -1789,1 c 26,4 141,57 151,96 -6,-3 -142,-84 -151,-96 z m 127,-19 c 3,-2 -3,-6 14,-3 2,0 12,4 15,5 l 106,16 c 30,2 137,-13 152,-3 -5,9 2,4 -10,9 -42,16 -92,22 -139,23 -40,0 -117,-27 -138,-47 z m 972,-116 c 8,13 8,93 7,116 0,7 -1,10 -2,17 -2,12 -1,10 -5,19 -9,-4 -8,7 -16,-31 -2,-13 -5,-28 -5,-42 l 10,-60 c 5,-18 8,-15 11,-17 z m 487,71 c 16,-1 11,-1 17,15 3,8 7,16 8,25 2,17 4,52 -4,67 -13,-9 -25,-85 -22,-108 z m -855,2 c 1,-15 10,-31 16,-45 8,-20 15,-42 27,-32 0,1 1,1 2,3 0,2 1,2 1,3 3,13 0,-6 1,7 v 50 c -10,7 -9,5 -22,9 -13,4 -10,5 -25,6 z m 402,-57 17,35 c 6,21 6,32 7,54 -22,-13 -37,-69 -24,-90 z m 119,15 c 15,7 24,23 25,39 1,13 0,12 -6,18 -5,-8 -18,-46 -19,-57 z m 1276,4 c 7,-9 23,-19 28,-19 9,0 55,43 68,55 1,1 1,1 2,2 l 45,35 c 12,9 32,26 36,39 -30,-9 -137,-76 -157,-95 -13,-12 -13,-6 -22,-17 z m -931,-14 c 31,10 61,42 69,90 5,29 -2,106 -30,128 -1,-75 27,-85 -17,-173 -8,-15 -23,-27 -22,-44 z m -418,-7 c 18,2 31,28 37,42 7,17 16,48 1,64 0,0 -39,-95 -38,-106 z m -2297,-52 c 11,2 36,16 46,21 43,25 79,67 82,125 -18,-5 -34,-38 -65,-69 -25,-25 -45,-48 -63,-77 z m 1997,-98 c 3,30 12,65 28,83 23,-21 15,-113 30,-145 l 31,35 c 21,31 78,105 80,123 -59,-9 -139,8 -205,-3 2,-19 12,-58 21,-76 5,-10 7,-14 15,-18 z m -998,37 c 25,-2 100,58 107,66 6,7 0,-2 5,9 -38,-7 -70,-20 -95,-46 -13,-13 -8,-14 -17,-29 z m 2916,42 c 55,1 116,-29 275,-26 15,0 47,6 57,4 l 88,-34 c -3,9 2,2 -7,10 -4,4 -7,5 -11,8 -9,7 -15,11 -19,22 29,18 124,17 163,31 -36,24 -242,-13 -285,-7 10,15 80,36 95,56 l -84,-26 c -15,-5 -29,-9 -43,-15 -21,-9 -17,-11 -45,-12 -30,-1 -171,13 -213,17 1,15 -3,4 27,23 26,17 79,47 90,70 -17,-2 -113,-48 -135,-59 -30,-15 -32,-14 -39,-27 -10,4 -28,12 -42,2 25,-22 67,-8 85,-39 14,-23 38,-53 64,-65 -6,22 -20,41 -20,66 z m -2256,-84 c 3,-6 9,-6 5,0 -2,3 -6,3 -5,0 z m -165,164 c 3,-16 72,-124 81,-136 5,-7 9,-12 14,-20 10,-14 8,-15 21,-14 -1,9 -4,12 -6,25 -2,13 -2,23 -4,35 l -12,95 c -3,16 -3,15 -22,16 -20,1 -53,1 -72,-1 z m -160,-219 c 21,1 39,-13 69,-14 -5,10 2,5 -22,19 -10,6 -16,8 -26,13 -6,3 -8,5 -12,7 l -42,19 c -43,21 -81,24 -131,26 7,26 17,5 25,40 -90,-37 -16,-25 -124,-42 -8,-1 -15,-2 -23,-3 -24,-4 -19,-6 -22,-8 9,-14 47,-14 65,-15 71,-3 67,6 107,-35 14,-14 20,-18 37,-25 -8,21 -37,35 -25,48 16,11 60,-5 77,-14 14,-7 31,-41 55,-41 3,16 -4,10 -8,27 z m 98,214 c -38,2 -99,-5 -137,-14 l -31,-7 c -10,-4 -6,-3 -10,-7 4,-6 -4,-3 17,-15 l 39,-22 c 9,-6 1,-2 8,-7 27,-17 39,-17 92,-57 28,-21 65,-74 74,-83 24,-23 34,-41 53,-44 -4,38 -32,98 -46,132 l -60,125 z m 256,-96 c -9,-19 5,-226 12,-276 l 7,-17 c 1,1 2,1 2,3 0,2 1,2 2,3 0,1 3,9 3,9 1,5 2,12 2,17 4,42 -8,213 -19,246 -1,3 -2,6 -3,9 -4,7 -1,2 -6,8 z m 88,-2 20,-145 c 9,-6 22,-18 32,-27 l 62,-68 c 6,-8 20,-29 32,-34 -8,39 -46,106 -65,146 -14,29 -59,120 -81,129 z M 3993,2994 c 37,8 95,63 113,83 16,18 67,98 75,123 9,26 10,17 15,34 l 21,80 c 4,18 9,22 12,37 5,29 13,155 10,188 l -4,1 c -1,0 -2,0 -3,1 -1,0 -2,1 -3,1 l -49,7 c -33,6 -82,19 -107,39 -13,11 -27,28 -46,29 -18,-18 -42,-102 -60,-134 l -77,-118 c 4,-23 14,-50 24,-65 -5,-16 62,-229 72,-286 l 5,-19 c 0,-1 1,-2 2,-3 z m 1671,707 c 21,-70 97,-152 135,-212 l 33,-51 c 11,-19 18,-39 29,-59 7,-12 10,-10 16,-26 8,-21 27,-79 47,-85 -2,12 -4,24 -5,34 -2,20 -5,20 -9,34 -17,60 1,9 -24,64 -16,37 -101,172 -132,213 -18,23 -65,80 -90,89 z m 459,-373 c 1,1 2,0 2,2 0,1 2,1 2,2 l 5,3 c 14,10 10,14 22,23 7,-6 23,-44 27,-56 l 8,-56 c 2,-15 2,-12 7,-16 7,14 0,108 -5,132 l -17,55 24,28 c 15,-16 23,-50 37,-63 19,52 27,151 80,184 18,11 20,17 40,25 29,11 124,39 126,72 -40,42 -46,24 -125,-11 -138,-62 -183,-17 -259,-124 -23,-33 -69,-78 -75,-117 -6,-40 19,-121 29,-163 12,-46 15,-107 17,-112 9,9 10,47 11,60 2,26 8,43 8,68 39,-20 22,-67 47,-79 0,59 -12,106 -13,145 z m -603,71 c -14,-28 -15,-271 0,-292 14,7 17,49 18,64 2,29 -2,47 -3,76 l -3,80 c -1,13 -4,52 -9,65 l -4,6 z M 4312,3187 c 35,0 168,41 185,51 12,7 20,12 32,18 30,15 80,69 95,96 11,18 29,32 44,52 l 29,40 c 16,25 36,52 46,76 -29,2 -68,-6 -100,-7 -38,-1 -73,-2 -111,-2 -41,1 -179,14 -202,7 l -8,-109 c 21,-2 29,12 42,22 30,25 68,41 103,57 5,2 8,5 10,5 l 6,1 c 6,0 7,-2 9,-3 -13,-32 -167,-163 -181,-305 z m 1333,16 c 0,-33 -13,-86 8,-112 14,16 13,99 -8,112 z m 60,28 c 12,-6 42,-35 53,-46 l 38,-38 c 5,-5 5,-6 13,-9 -4,22 -43,86 -56,112 -10,19 -34,105 -54,114 -8,-14 7,-91 6,-132 z m -106,-41 c -14,-4 -11,-7 -18,-35 -8,-30 -10,-63 -4,-93 4,-23 -3,-31 18,-36 11,30 18,132 4,164 z m -594,-8 c -46,6 -75,-3 -111,-25 -3,-2 -13,-10 -16,-12 l -27,-31 c 28,-2 61,18 83,29 12,6 26,12 39,18 15,7 28,6 32,20 z m 75,25 c 20,-2 41,1 60,1 34,1 125,-24 151,-36 30,-13 59,-27 86,-40 14,-7 27,-17 40,-25 10,-6 9,-5 17,-13 8,-8 6,-10 17,-11 l -20,31 c -8,10 -17,19 -24,29 -11,14 -41,41 -41,65 41,5 51,-26 83,-22 -1,40 -48,141 -70,162 -92,6 -114,-45 -217,6 -28,14 -58,27 -89,41 -15,7 -27,14 -46,19 -48,14 -120,23 -162,3 l -111,-84 c -19,-17 -18,-20 -30,-35 -13,-16 -51,-47 -52,-72 16,-1 49,9 67,15 24,8 28,23 42,38 58,64 150,77 232,21 32,-22 53,-75 66,-94 z m -420,-78 c 23,-35 88,-50 134,-51 -8,22 -19,21 -30,42 -10,19 -9,34 -10,57 -20,-7 -27,-16 -45,-25 -34,-17 -36,-5 -48,-23 z m 1045,13 c 1,-101 11,-83 47,-120 9,-9 19,-17 35,-19 1,27 -48,136 -82,139 z m -1818,-70 -29,170 c -4,11 -4,7 -6,10 -18,-26 -27,-78 -29,-116 -3,-36 -4,-68 11,-99 3,-5 43,-45 45,-46 3,2 2,1 7,5 2,1 5,5 5,4 0,-1 2,2 3,2 -4,22 -3,47 -6,69 z m 1593,-52 c 6,-12 0,-4 10,-9 -4,12 5,4 -10,9 z m -581,-26 c 15,-5 23,-13 39,-14 l 67,75 c -17,4 -79,-36 -97,-50 -9,-6 -5,-2 -10,-12 z m 1034,47 c 2,-24 4,-18 20,-29 9,-7 9,-11 22,-20 26,-17 21,-24 41,-37 l 7,-3 c -3,23 -16,49 -28,67 -8,12 -27,43 -40,49 -12,-8 -13,-17 -22,-28 z m -327,-159 c 19,-2 21,13 31,54 8,32 8,45 11,77 -14,-7 -1,5 -14,-13 -18,-25 -34,-94 -28,-118 z m -592,72 c 4,-7 2,-7 18,-17 59,-35 80,-9 116,-45 10,-10 27,-20 43,-24 -6,17 -12,14 -13,32 15,8 80,-2 108,1 32,2 19,6 45,-9 14,-8 26,-10 43,-14 -4,8 -4,7 -11,15 -2,2 -6,5 -8,8 -5,5 -1,1 -5,8 18,15 53,9 72,25 -21,4 -101,-6 -132,-7 -30,0 -105,0 -128,9 5,15 59,58 79,79 11,12 4,3 8,13 -65,-14 -104,-50 -149,-70 -32,-15 0,-14 -85,-3 z m 711,3 c -3,-19 0,-37 -1,-56 -2,-25 -6,-23 11,-37 15,-12 43,-45 59,-50 2,34 -14,57 -25,80 -11,24 -20,56 -44,64 z m -58,-96 c -10,-12 -17,-66 -16,-73 2,-18 6,-62 21,-76 8,12 5,21 5,39 l -9,110 z m 227,5 c 12,-13 28,-22 43,-33 27,-21 108,-91 134,-94 -3,35 -51,127 -72,161 l -32,41 c -12,13 -34,44 -48,51 -22,-25 -19,-81 -26,-112 l 9,-5 c -14,-7 -5,-1 -9,-10 z m -310,-82 c -20,-28 -21,-106 -4,-147 13,22 18,131 4,147 z m 308,34 c -14,-101 -15,-87 38,-114 26,-13 81,-58 102,-60 -7,24 -52,90 -71,113 l -27,31 c -18,18 -28,33 -42,30 z m -155,-162 c 19,-21 50,-41 56,-47 13,-11 0,-9 20,-15 5,10 4,-10 3,12 l -29,79 c -13,29 -26,68 -50,68 v -96 z m 147,-40 c 15,-10 97,-46 115,-48 -6,18 -15,21 -26,34 l -53,54 c -11,13 -11,21 -30,24 -3,-16 -8,-46 -5,-64 z m -241,-8 c -6,-24 -3,-57 4,-79 6,-18 11,-35 24,-50 l 6,-4 c -1,26 -22,117 -34,133 z m 626,-123 c -19,40 -68,97 -66,-39 15,-1 30,4 44,9 16,7 16,12 22,29 z m -534,31 c 11,-14 39,-29 53,-37 13,-8 8,-8 21,-8 1,36 -42,116 -68,122 -13,-17 -7,-54 -6,-77 z m 164,-22 c 15,6 6,9 24,-2 21,-12 44,-29 61,-28 -1,14 -28,54 -46,70 -14,12 -20,36 -44,40 -13,-34 3,-72 5,-79 z m -322,22 c -8,-34 3,-110 27,-129 8,18 -1,52 -5,71 l -11,50 c -7,16 3,5 -11,8 z m 571,-164 c 1,12 0,25 2,36 l 4,15 c 1,7 1,9 4,15 l -14,19 c -53,7 -58,-63 -58,-106 l 63,21 z m -529,4 c 0,16 1,1 -4,7 l 1,-16 c 1,1 3,-1 3,9 z m 697,55 c 0,-22 2,-39 13,-53 7,-10 20,-24 32,-27 -1,18 -7,35 -13,50 -7,15 -14,30 -32,31 z m -56,-20 c -17,-2 -13,-3 -24,-20 -25,-38 -13,-58 -6,-90 22,9 10,10 27,26 15,15 4,-3 25,26 -2,9 -18,49 -22,58 z m -332,-10 c 4,-23 11,-57 22,-72 4,10 -8,43 -7,61 19,-4 9,-6 19,-11 -7,16 -21,29 -31,43 6,4 -10,12 23,1 9,-3 3,-3 16,-2 -1,14 -20,36 -30,46 -9,9 -26,35 -37,40 -2,-24 2,-41 5,-61 6,-36 -5,-25 20,-45 z m -268,44 c 8,-21 16,-47 27,-67 7,-13 29,-48 39,-54 0,30 -46,115 -66,120 z m 112,-1 c 8,-32 78,-134 107,-165 10,-10 6,-10 25,-9 -2,28 -38,72 -57,96 -4,5 -4,6 -8,12 l -44,51 c -11,12 -8,11 -23,15 z m -17,-78 c 6,-29 50,-90 72,-99 -4,16 -53,93 -72,99 z m 578,-73 c -24,12 -63,-40 -33,-106 9,2 41,39 47,48 l -14,57 z m -181,23 c -19,-31 -51,-99 -14,-134 19,4 16,15 40,22 16,5 36,4 48,9 -4,22 -11,8 -35,53 -12,22 -14,46 -38,50 z m -125,-111 c 34,34 28,7 26,80 -13,-2 -15,-9 -25,-20 -6,-7 -10,-15 -16,-26 -9,-16 -19,-47 -12,-64 10,7 20,22 27,30 z m 488,-49 c -6,3 -8,5 -17,6 -21,3 -10,1 -14,-6 14,-8 17,-4 31,0 z m -844,121 c 1,-14 39,-66 45,-71 l 57,-59 c 11,19 -80,127 -101,131 z m 116,-12 c 5,-23 38,-82 55,-101 10,-11 12,-16 28,-24 -4,26 -23,57 -36,73 -10,13 -32,52 -47,52 z m 89,-47 c 18,-23 41,-84 73,-93 -3,18 -10,33 -19,47 -13,21 -26,48 -54,46 z m 290,-143 c 21,3 35,20 48,31 16,13 32,20 41,40 -17,7 -49,-2 -64,-13 -20,-14 -23,-32 -25,-58 z m -95,89 c -12,-18 -18,-58 -4,-76 5,-7 40,-34 58,-38 -1,18 -6,20 -7,38 0,16 3,28 4,45 -31,4 -25,30 -51,32 z m 86,625 c -1,-59 47,-109 60,-130 23,-35 22,-25 32,-41 15,-23 7,-20 30,-43 8,-9 8,-13 15,-23 68,-88 86,-143 110,-258 10,-51 -10,-75 -33,-105 -26,-36 -73,-82 -112,-110 -19,-14 -29,-18 -41,-34 18,6 36,14 53,25 l 45,31 c 11,8 67,62 76,77 21,37 40,62 34,120 -5,42 -6,90 -22,127 -46,105 -124,178 -186,273 l -52,82 c -8,10 -2,3 -10,9 z m -213,-802 c 3,39 -135,160 -69,55 32,-40 36,-42 69,-55 z m 853,35 -94,-34 c -10,-5 -6,-4 -10,-8 40,-3 92,9 105,42 z m -451,20 c 5,-22 58,-69 86,-72 -12,18 -26,27 -39,42 -10,12 -29,26 -47,30 z m 125,-3 c 10,-40 45,-84 93,-80 -10,12 -14,11 -25,20 -25,21 -51,54 -68,61 z m 372,-28 c -12,-8 -29,-55 -30,-67 25,6 46,36 30,67 z m -787,-51 c 19,-15 21,-17 55,-26 -3,18 -45,53 -63,61 -13,6 -20,7 -32,12 l 39,-46 z m 228,-1 c 13,-27 91,-83 136,-81 -15,17 -111,78 -136,81 z m 172,-40 c 6,-15 27,-34 40,-43 15,-10 34,-23 55,-19 -5,24 -59,55 -95,62 z m -277,9 c 10,-23 98,-87 143,-79 -3,11 -6,11 -24,21 -28,15 -89,59 -120,58 z m 446,-95 c 19,17 75,61 81,82 -49,-11 -86,-44 -97,-92 16,5 5,0 16,10 z m 177,-74 c 1,-3 3,-2 4,0 1,1 1,1 1,7 8,34 -12,92 -43,102 -21,7 -15,6 -1,-16 16,-25 27,-56 39,-93 z m -353,62 c 6,-9 12,-11 20,-19 l 46,-23 c 36,-8 22,-3 27,0 -13,16 -76,40 -93,42 z m -113,-30 c 12,-15 103,-67 128,-50 -21,17 -95,48 -128,50 z m -14,-46 c -11,5 -4,3 -10,0 4,-3 -1,-2 6,-3 16,-1 -2,-2 4,3 z m 349,83 c -11,-28 -12,-47 4,-71 9,-13 39,-36 61,-23 -5,5 0,1 -6,6 l -19,11 c -49,37 -21,61 -40,77 z m -104,-98 c 8,-19 46,-29 65,-29 27,0 23,7 24,8 -14,5 -74,28 -90,21 z m -80,-50 c 8,-11 37,-20 54,-23 14,-2 18,-3 30,-1 5,1 15,1 18,2 15,3 10,4 12,7 -27,12 -81,16 -115,15 z m 302,451 c 12,-3 52,-31 63,-39 83,-64 15,-171 14,-193 -2,-23 17,-66 8,-138 -5,-41 -102,-135 -160,-151 -49,-13 -136,-20 -190,-17 -15,1 -26,8 -40,13 -77,28 -121,91 -215,145 -20,12 -9,12 -35,19 l -36,14 c -70,25 -145,60 -206,100 l -122,85 c -51,38 -147,128 -185,178 -86,111 -105,159 -150,313 -16,55 -16,124 -24,184 -9,70 -1,137 -7,194 -28,4 -82,-28 -136,-25 -38,2 -25,13 -72,2 -67,-16 -145,2 -198,34 -78,47 -167,73 -243,124 -22,15 -53,28 -77,41 -38,20 -65,44 -102,62 -29,14 -73,43 -92,68 -22,0 -72,-4 -87,-15 7,-6 21,-15 28,-20 24,-16 60,-44 74,-64 l -107,25 c -78,16 -134,45 -206,-6 -20,-14 -67,-35 -70,-56 51,-25 248,-23 288,-42 -12,-21 -41,-25 -64,-37 -34,-18 -77,-27 -121,-26 -51,0 -81,0 -128,-15 l -115,-34 c -57,-45 -52,-98 -68,-130 -6,-12 -9,-21 -14,-31 -12,0 -13,-1 -23,6 -55,33 -99,45 -111,100 -54,18 -40,98 -43,118 -27,6 -99,-10 -158,2 -36,7 -58,25 -83,43 -16,11 -10,7 -33,9 -17,44 -28,149 -16,198 3,13 8,32 14,44 l 22,35 c 9,14 15,17 35,23 49,14 42,3 54,61 14,66 78,210 108,270 14,28 60,111 81,138 16,22 30,42 44,63 27,41 65,87 120,79 50,-7 84,-30 127,-57 10,-6 21,-10 30,-16 15,-9 17,-11 36,-12 -6,20 -32,36 -46,52 -24,29 -116,93 -148,127 -15,16 -31,32 -47,49 -13,14 -26,36 -40,52 -27,29 -56,68 -67,117 -69,19 -306,85 -264,195 l 17,21 c 18,13 39,15 60,28 21,14 32,44 59,47 18,2 36,-2 53,-6 28,-8 29,-19 48,-32 17,-12 9,-3 20,-22 5,-9 10,-13 17,-21 13,-18 18,-33 34,-47 19,3 23,11 38,16 13,4 25,5 38,11 -8,15 -17,23 -27,38 l -24,40 c -47,73 -31,185 -5,265 6,19 10,31 14,51 16,-2 30,-11 44,-18 38,-19 84,-34 116,-60 16,-13 40,-51 47,-71 16,-44 2,-66 6,-105 23,-6 55,-6 80,-12 57,-13 65,-81 -20,-116 -52,-22 -85,-9 -114,-21 -1,-57 63,-127 79,-158 4,-9 7,-12 12,-19 6,-9 9,-11 15,-20 5,-8 5,-13 11,-23 14,-20 66,-104 85,-114 l 239,553 c 8,20 18,34 27,53 11,22 19,29 30,47 33,55 50,64 91,107 13,13 43,50 59,53 -4,-41 -48,-138 -66,-181 -24,-59 -43,-120 -69,-179 -7,-16 -11,-33 -18,-47 l -56,-128 c -4,-9 -5,-12 -9,-21 0,-1 -1,-2 -1,-3 -22,-46 -58,-90 -70,-139 19,0 2,0 20,9 31,16 115,58 143,46 -5,-15 -18,-25 -28,-38 l -183,-207 c -7,-9 -21,-27 -24,-39 19,0 4,2 21,12 34,19 126,78 150,82 -11,-19 -42,-43 -56,-65 l -52,-70 c -8,-10 -18,-20 -28,-33 -17,-22 -68,-101 -52,-126 25,-18 168,-30 209,-28 56,2 154,12 203,31 -2,26 -41,106 -48,148 -13,75 -14,97 -2,175 9,63 31,91 54,137 24,48 34,79 65,126 l 45,54 c 9,9 17,15 25,24 6,7 12,19 21,25 37,28 91,45 137,55 153,33 172,51 334,40 1,1 2,2 2,2 21,20 26,53 63,48 37,-5 34,-39 58,-52 26,9 25,38 73,52 83,-67 42,-205 61,-293 64,-1 53,32 156,-9 71,-29 114,2 161,-15 -4,-21 -35,-76 -46,-96 -20,-37 -36,-48 -46,-65 -5,-9 -5,-15 -11,-20 l 56,8 c -13,-39 -50,-72 -71,-96 l -91,-73 c 0,-26 4,-63 11,-84 13,-5 25,-8 38,-12 37,-15 55,-42 97,-50 -4,-9 5,-1 29,-7 l 61,-6 c 15,0 20,1 26,8 9,11 25,85 31,106 9,27 23,78 38,96 22,-11 22,-48 42,-64 l 2,50 c 31,3 44,-46 69,-58 -2,15 -13,51 -20,64 -11,22 -12,37 -20,57 36,-18 64,-48 87,-81 95,-143 1,-108 215,-94 9,17 22,34 32,52 21,34 83,111 113,137 27,-12 74,-91 122,-116 23,4 34,12 61,14 50,3 172,-16 202,16 -3,16 -13,33 -18,53 -5,19 -10,35 -15,54 -10,44 -15,72 -6,120 9,46 43,156 58,217 30,120 31,149 91,253 18,31 52,120 74,134 12,-14 19,-32 27,-51 8,-20 15,-33 23,-53 18,-43 73,-74 93,-98 16,-20 36,-39 50,-64 19,-34 39,-64 33,-110 -5,-36 -12,-98 -25,-128 -4,-9 -7,-18 -11,-27 -29,-68 -105,-130 -157,-183 -15,-15 -35,-20 -27,-44 33,-4 196,77 237,105 28,19 53,45 73,72 38,49 123,179 153,238 6,11 10,21 15,34 49,121 119,233 195,337 14,19 21,39 36,59 2,-2 3,-2 5,-6 l 33,-101 c 21,-72 22,-174 -2,-250 -10,-32 -34,-63 -48,-94 60,-5 101,-30 108,-88 1,-12 -1,-18 -3,-28 -3,-9 -5,-15 -2,-23 16,-6 54,-8 75,-12 30,-7 37,-8 64,-20 23,-11 8,-7 22,-20 11,-10 12,-3 20,-21 42,-88 -7,-181 -73,-235 -5,-4 -45,-29 -46,-35 0,-2 -2,-2 -2,-3 10,-13 31,-21 44,-27 l 74,-37 c 80,-44 182,-46 260,-96 l 64,-47 c 13,-9 3,2 12,-11 8,-12 12,-12 18,-24 -6,-18 -36,-43 -48,-52 -11,-8 -14,-17 -23,-26 -38,-42 -77,-81 -128,-109 -79,-44 -148,-52 -234,-30 -34,9 -51,8 -88,9 -41,1 -83,15 -122,22 -60,10 -133,26 -184,52 -23,12 -44,19 -65,31 -16,10 -44,26 -57,38 -17,17 -35,27 -53,42 -16,13 -40,27 -58,38 -86,54 -173,87 -273,110 -83,19 -161,-11 -240,-36 -7,-2 -13,-4 -20,-7 -12,-5 -7,-5 -15,-8 -63,-26 -127,-21 -188,-50 -45,-21 -88,-37 -130,-61 -39,-21 -221,-118 -237,-144 14,-33 24,-52 31,-89 24,-113 5,-116 0,-213 -3,-64 -17,-158 -11,-218 5,-59 25,-141 45,-192 3,-9 5,-15 9,-22 77,-132 69,-312 111,-456 16,-57 40,-116 73,-164 35,-51 113,-72 172,-49 2,23 -7,27 -3,48 z"
   id="path7" />
 </g>
<text
   xml:space="preserve"
   id="text839"
   style="font-stretch:condensed;font-size:1388.89px;line-height:0%;font-family:'Helvetica LT Std';-inkscape-font-specification:'Helvetica LT Std Condensed';letter-spacing:0px;word-spacing:0px;white-space:pre;shape-inside:url(#rect841);fill:none;stroke:#000000;stroke-width:10.4167px;stroke-linecap:butt;stroke-linejoin:miter;stroke-opacity:1;"
   transform="translate(-3617.8869,-814.40291)"><tspan
     x="7642.4883"
     y="2089.6689"><tspan
       dx="0 0 0.00012207031 -0.00012207031"
       style="font-style:normal;font-variant:normal;font-weight:normal;font-stretch:normal;font-size:1388.89px;font-family:'20th Century Woodcut';-inkscape-font-specification:'20th Century Woodcut';fill:#000000">urli</tspan></tspan></text></svg>
