<svg xmlns="http://www.w3.org/2000/svg" xmlns:xlink="http://www.w3.org/1999/xlink" height="266.653" viewBox="0 0 827.51 199.99" width="1103.348" id="svg45" version="1.1"><defs id="defs4" stroke-linejoin="round"><style id="style2">*{stroke-linecap:butt;stroke-linejoin:round}</style></defs><g id="figure_1" transform="translate(-7.2 -37.618)" stroke-linejoin="round"><g id="patch_1"><path d="M0 280.512h371.52V0H0z" id="path6" fill="none"/></g><g id="axes_1"><g id="line2d_1"><path clip-path="url(#p22f64d38d4)" d="m7.2 224.115 10.714-1.376 8.928-1.344 8.928-1.566 7.142-1.444 7.142-1.649 7.143-1.891 5.357-1.606 5.356-1.794 5.357-2.009 5.357-2.258 5.357-2.548 5.357-2.884 3.57-2.136 3.572-2.33 3.571-2.544 3.571-2.782 3.572-3.046 3.57-3.34 3.572-3.665 3.571-4.026 3.571-4.424 3.572-4.861 3.57-5.34 3.572-5.858 3.571-6.413 3.571-7 3.572-7.603 3.57-8.206 3.572-8.778 3.571-9.282 5.357-14.58 7.142-19.485 3.572-9.023 1.785-4.152 1.786-3.837 1.785-3.467 1.786-3.041 1.786-2.566 1.785-2.047 1.786-1.49 1.785-.904 1.786-.304 1.786.304 1.785.905 1.786 1.49 1.785 2.046 1.786 2.566 1.786 3.041 1.785 3.467 1.786 3.837 3.571 8.562 3.571 9.376 12.5 34 3.57 9.041 3.572 8.499 3.571 7.906 3.571 7.3 3.571 6.703 3.572 6.132 3.57 5.593 3.572 5.096 3.571 4.637 3.571 4.22 3.572 3.841 3.57 3.499 3.572 3.189 3.571 2.91 3.571 2.66 3.572 2.434 3.57 2.23 5.358 3.009 5.356 2.654 5.357 2.35 5.357 2.088 5.357 1.862 5.357 1.666 7.142 1.959 7.142 1.705 7.143 1.493 8.928 1.615 8.928 1.385 10.713 1.415 1.786.214" id="path9" fill="none" stroke="#61ded4" stroke-width="10"/></g><g id="line2d_2"><defs id="defs13"><path d="m-5 10 5-5 5 5 5-5-5-5 5-5-5-5-5 5-5-5-5 5 5 5-5 5z" id="mc8e9ab356d" stroke="#000"/></defs><g clip-path="url(#p22f64d38d4)" id="g35" stroke="#000"><use x="29.52" xlink:href="#mc8e9ab356d" y="219.095" id="use15" width="100%" height="100%" style="fill:#969696;fill-opacity:1;stroke:none"/><use x="74.16" xlink:href="#mc8e9ab356d" y="200.897" id="use17" width="100%" height="100%" style="fill:#969696;fill-opacity:1;stroke:none;stroke-opacity:1;stroke-width:.99975119;stroke-miterlimit:4;stroke-dasharray:none"/><use x="96.48" xlink:href="#mc8e9ab356d" y="193.373" id="use19" width="100%" height="100%" style="fill:#969696;fill-opacity:1;stroke:none"/><use x="141.12" xlink:href="#mc8e9ab356d" y="138.55" id="use21" width="100%" height="100%" style="fill:#969696;fill-opacity:1;stroke:none"/><use x="185.76" xlink:href="#mc8e9ab356d" y="48.118" id="use23" width="100%" height="100%" style="fill:#969696;fill-opacity:1;stroke:none"/><use x="208.08" xlink:href="#mc8e9ab356d" y="77.686" id="use25" width="100%" height="100%" style="fill:#969696;fill-opacity:1;stroke:none"/><use x="230.4" xlink:href="#mc8e9ab356d" y="142.629" id="use27" width="100%" height="100%" style="fill:#969696;fill-opacity:1;stroke:none"/><use x="275.04" xlink:href="#mc8e9ab356d" y="182.386" id="use29" width="100%" height="100%" style="fill:#969696;fill-opacity:1;stroke:none"/><use x="297.36" xlink:href="#mc8e9ab356d" y="191.451" id="use31" width="100%" height="100%" style="fill:#969696;fill-opacity:1;stroke:none"/><use x="353.16" xlink:href="#mc8e9ab356d" y="227.108" id="use33" width="100%" height="100%" style="fill:#969696;fill-opacity:1;stroke:none"/></g></g></g></g><defs id="defs43"><clipPath id="p22f64d38d4" stroke-linejoin="round"><path id="rect40" d="M7.2 7.2h357.12v266.112H7.2z"/></clipPath></defs><g aria-label="smoothfit" transform="matrix(.75 0 0 .75 -.068 1.606)" style="line-height:0%;-inkscape-font-specification:'Commando Bold'" id="flowRoot864" font-weight="700" font-size="160" letter-spacing="0" word-spacing="0" font-family="Cantarell" stroke-linejoin="round"><path d="M429.353 121.352c21.44 0 33.92-9.44 33.92-24.96 0-29.12-43.84-19.36-43.84-32.48 0-4.64 5.44-7.52 15.04-7.52 6.4 0 14.08 1.28 21.28 3.36l4.16-15.36c-7.2-2.56-16.32-4-25.12-4-22.24 0-35.2 8.96-35.2 24.96 0 28.96 43.36 17.92 43.36 32 0 4.96-5.12 8-13.92 8-7.52 0-17.92-2.08-26.08-5.28l-4.48 15.2c8.96 3.84 20.32 6.08 30.88 6.08z" style="-inkscape-font-specification:'Cantarell Bold';fill:#969696;fill-opacity:1;stroke:none" id="path841"/><path d="M479.226 119.752h20.48v-56c4.48-3.52 9.76-5.28 15.52-5.28 11.2 0 15.36 7.04 15.36 16.16v45.12h20.32v-48.8c0-2.4-.32-4.64-.64-6.72 4.8-3.84 10.24-5.76 16.16-5.76 10.88 0 15.36 6.56 15.36 16.16v45.12h20.32v-48.8c0-18.56-11.04-30.24-28.64-30.24-10.72 0-20.48 4.32-27.52 11.84-4.8-7.52-13.12-11.84-23.68-11.84-9.28 0-18.08 3.36-24.96 9.28l-3.52-8h-14.56z" style="-inkscape-font-specification:'Cantarell Bold';fill:#969696;fill-opacity:1;stroke:none" id="path843"/><path d="M655.47 121.352c24.64 0 41.12-16.8 41.12-41.76 0-23.84-15.2-39.2-38.56-39.2-24.64 0-41.12 16.64-41.12 41.76 0 23.68 15.04 39.2 38.56 39.2zm1.76-17.28c-12 0-19.68-9.28-19.68-23.68 0-14.08 7.04-22.72 18.56-22.72 12 0 19.84 9.44 19.84 24 0 13.76-7.2 22.4-18.72 22.4z" style="-inkscape-font-specification:'Cantarell Bold';fill:#969696;fill-opacity:1;stroke:none" id="path845"/><path d="M746.096 121.352c24.64 0 41.12-16.8 41.12-41.76 0-23.84-15.2-39.2-38.56-39.2-24.64 0-41.12 16.64-41.12 41.76 0 23.68 15.04 39.2 38.56 39.2zm1.76-17.28c-12 0-19.68-9.28-19.68-23.68 0-14.08 7.04-22.72 18.56-22.72 12 0 19.84 9.44 19.84 24 0 13.76-7.2 22.4-18.72 22.4z" style="-inkscape-font-specification:'Cantarell Bold';fill:#969696;fill-opacity:1;stroke:none" id="path847"/><path d="M834 120.872c5.28 0 11.04-1.12 16-2.72l-4.16-14.56c-2.24.96-4.96 1.44-7.36 1.44-7.36 0-12-4.32-12-11.04v-35.68H846v-16.32h-19.52v-22.56h-20.16v22.56h-10.88v16.32h10.88v36.96c0 15.68 10.4 25.6 27.68 25.6z" style="-inkscape-font-specification:'Cantarell Bold';fill:#969696;fill-opacity:1;stroke:none" id="path849"/><path d="M864.226 119.752h20.16v-55.04c4.64-4.32 9.76-6.24 15.68-6.24 10.08 0 15.2 5.6 15.2 16.16v45.12h20.32v-48.8c0-18.72-10.88-30.24-28.64-30.24-8.32 0-16 2.72-22.56 8.16V1.512h-20.16z" style="-inkscape-font-specification:'Cantarell Bold';fill:#969696;fill-opacity:1;stroke:none" id="path851"/><path d="M959.628 119.752h19.68v-61.44h22.4v-16.32h-22.4v-12.32c0-8.32 4.48-12.8 12.96-12.8 4 0 8.96.8 11.84 2.4l4.16-14.72c-4.96-2.88-11.04-4.64-17.6-4.64-18.56 0-31.04 12.64-31.04 31.52v10.56h-12v16.32h12zm64.96-92.16c7.68 0 12.64-4.8 12.64-12.48 0-7.68-4.96-12.64-12.64-12.64-7.68 0-12.48 4.96-12.48 12.64 0 7.68 4.8 12.48 12.48 12.48zm-10.24 92.16h20.32v-77.76h-20.32z" style="-inkscape-font-specification:'Cantarell Bold';fill:red;fill-opacity:1;stroke:none" id="path853"/><path d="M1087.438 120.872c5.28 0 11.04-1.12 16-2.72l-4.16-14.56c-2.24.96-4.96 1.44-7.36 1.44-7.36 0-12-4.32-12-11.04v-35.68h19.52v-16.32h-19.52v-22.56h-20.16v22.56h-10.88v16.32h10.88v36.96c0 15.68 10.4 25.6 27.68 25.6z" fill="currentColor" style="-inkscape-font-specification:'Cantarell Bold';fill-opacity:1;stroke:none" id="path855"/></g></svg>